<?xml version="1.0" standalone="no"?>
<!DOCTYPE svg PUBLIC "-//W3C//DTD SVG 20010904//EN"
 "http://www.w3.org/TR/2001/REC-SVG-20010904/DTD/svg10.dtd">
<svg version="1.0" xmlns="http://www.w3.org/2000/svg"
 width="40.000000pt" height="45.000000pt" viewBox="0 0 40.000000 45.000000"
 preserveAspectRatio="xMidYMid meet">

<g transform="translate(0.000000,45.000000) scale(0.100000,-0.100000)"
fill="blue" stroke="none">
<path d="M88 362 l-78 -78 -2 -60 c-4 -117 2 -168 24 -192 27 -28 86 -30 119
-3 31 25 20 36 -17 16 -39 -20 -60 -19 -84 5 -17 17 -20 33 -20 110 0 60 5
101 14 119 21 40 133 141 157 141 23 0 134 -102 155 -142 9 -17 14 -60 14
-118 0 -77 -3 -93 -20 -110 -36 -36 -66 -26 -146 52 -61 59 -74 77 -74 103 0
39 30 68 70 68 63 0 91 -64 50 -116 -26 -32 -27 -51 -2 -38 29 16 56 74 48
105 -23 92 -150 102 -186 16 -17 -41 -6 -74 43 -127 94 -103 168 -130 215 -80
26 28 39 125 27 203 -6 43 -16 57 -83 126 -66 68 -80 78 -111 78 -30 0 -45
-10 -113 -78z"/>
</g>
</svg>
